<?xml version="1.0" encoding="UTF-8" standalone="no"?>
<!-- Generator: Adobe Illustrator 18.0.0, SVG Export Plug-In . SVG Version: 6.00 Build 0)  -->

<svg
   version="1.1"
   id="Слой_1"
   x="0px"
   y="0px"
   viewBox="0 0 428.3 336.89997"
   enable-background="new 0 0 595.3 841.9"
   xml:space="preserve"
   sodipodi:docname="logo.svg"
   width="428.29999"
   height="336.89999"
   inkscape:export-filename="logo.svg"
   inkscape:export-xdpi="62.167183"
   inkscape:export-ydpi="62.167183"
   inkscape:version="1.3.2 (091e20e, 2023-11-25)"
   xmlns:inkscape="http://www.inkscape.org/namespaces/inkscape"
   xmlns:sodipodi="http://sodipodi.sourceforge.net/DTD/sodipodi-0.dtd"
   xmlns:xlink="http://www.w3.org/1999/xlink"
   xmlns="http://www.w3.org/2000/svg"
   xmlns:svg="http://www.w3.org/2000/svg"><defs
   id="defs2" /><sodipodi:namedview
   id="namedview2"
   pagecolor="#ffffff"
   bordercolor="#000000"
   borderopacity="0.25"
   inkscape:showpageshadow="2"
   inkscape:pageopacity="0.0"
   inkscape:pagecheckerboard="0"
   inkscape:deskcolor="#d1d1d1"
   inkscape:zoom="0.73952369"
   inkscape:cx="298.16489"
   inkscape:cy="419.86485"
   inkscape:window-width="1392"
   inkscape:window-height="1122"
   inkscape:window-x="3360"
   inkscape:window-y="25"
   inkscape:window-maximized="0"
   inkscape:current-layer="Слой_1" />
<g
   id="g2"
   style="fill:#ffffff"
   transform="matrix(1.0801909,0,0,1.0801909,-106.86786,-151.08397)">
	<defs
   id="defs1">
		<rect
   id="SVGID_1_"
   width="595.29999"
   height="595.29999"
   x="0"
   y="0" />
	</defs>
	<clipPath
   id="SVGID_2_">
		<use
   xlink:href="#SVGID_1_"
   overflow="visible"
   id="use1" />
	</clipPath>
	<path
   clip-path="url(#SVGID_2_)"
   fill="#231F20"
   d="m 199.9,296.3 h -1.1 c -0.1,0 -0.2,0 -0.3,0 z m 197,0 c -0.1,0 -0.2,0 -0.3,0 h -1.1 z M 439.1,254 c 0,-7.1 -1.8,-13.8 -4.9,-19.7 -11.8,-24.5 -30,-45.4 -52.5,-60.4 -24.5,-15 -53.3,-23.6 -84.1,-23.6 -30.8,0 -59.6,8.6 -84.1,23.6 -22.5,15 -40.7,35.9 -52.5,60.4 -3.1,5.9 -4.9,12.6 -4.9,19.7 0,22.9 18.2,41.5 40.9,42.2 h 1.7 c 2.2,0 4.4,-0.2 6.6,-0.6 15.9,-2.2 29.8,-10.4 39.4,-22.3 13,-14.6 31.9,-23.8 52.9,-23.8 21.1,0 39.9,9.2 52.9,23.8 9.6,11.9 23.5,20.2 39.4,22.3 2.1,0.4 4.3,0.5 6.6,0.6 h 1.7 c 22.8,-0.7 40.9,-19.3 40.9,-42.2"
   id="path1"
   style="fill:#ffffff" />
	<path
   clip-path="url(#SVGID_2_)"
   fill="#231F20"
   d="m 491.4,352.4 c 0,-18.7 -5.7,-36 -15.4,-50.4 -2.2,-4.1 -6.5,-6.9 -11.5,-6.9 -5.5,0 -10.2,3.4 -12.1,8.2 h -0.1 c -8,19.9 -27.4,33.9 -50.1,33.9 -18.8,0 -35.4,-9.6 -45.1,-24.3 -0.4,-0.4 -1.3,-1.8 -1.6,-2.2 v 0 c -12.8,-18.2 -34,-30.1 -57.9,-30.1 -23.9,0 -45.1,11.9 -57.9,30.1 v 0 c -0.3,0.4 -1.2,1.8 -1.6,2.2 -9.7,14.6 -26.2,24.3 -45.1,24.3 -22.7,0 -42.1,-14 -50.1,-33.9 h -0.1 c -1.9,-4.8 -6.6,-8.2 -12.1,-8.2 -5,0 -9.3,2.8 -11.5,6.9 -9.7,14.4 -15.4,31.7 -15.4,50.4 0,50.1 40.6,90.7 90.7,90.7 22.7,0 43.5,-8.4 59.4,-22.2 v 0 c 11.8,-9.9 27.1,-15.8 43.7,-15.8 16.6,0 31.8,5.9 43.7,15.8 v 0 c 15.9,13.8 36.7,22.2 59.4,22.2 50.1,0 90.7,-40.6 90.7,-90.7"
   id="path2"
   style="fill:#ffffff" />
</g>
</svg>
