<?xml version="1.0" encoding="UTF-8" standalone="no"?>
<svg
   version="1.1"
   id="Слой_1"
   x="0px"
   y="0px"
   viewBox="0 0 679.8125 543"
   width="679.8125"
   height="543"
   xml:space="preserve"
   xmlns="http://www.w3.org/2000/svg"
   xmlns:svg="http://www.w3.org/2000/svg">
  <defs>
    <!-- Define the background gradient -->
    <linearGradient
       id="backgroundGradient"
       x1="0%"
       y1="0%"
       x2="100%"
       y2="0%">
      <stop offset="0%" style="stop-color:#1d1b1b; stop-opacity:1" />
      <stop offset="100%" style="stop-color:#3a312a; stop-opacity:1" />
    </linearGradient>
    <!-- Define the first gradient with #8c6e54 on the left and #cf9056 as the light color -->
    <linearGradient
       id="menuGradient1"
       x1="284.26788"
       y1="274.4946"
       x2="655.75061"
       y2="274.4946"
       gradientTransform="scale(0.91498203,1.0929176)"
       gradientUnits="userSpaceOnUse">
      <stop offset="0%" style="stop-color:#cf9056; stop-opacity:1" />
      <stop offset="100%" style="stop-color:#8c6e54; stop-opacity:1" />
    </linearGradient>
    <!-- Define the mirrored gradient with #cf9056 on the left and #8c6e54 on the right -->
    <linearGradient
       id="menuGradient2"
       x1="1027.3597"
       y1="149.1237"
       x2="655.83136"
       y2="149.1237"
       gradientTransform="scale(0.91486937,1.0930522)"
       gradientUnits="userSpaceOnUse">
      <stop offset="0%" style="stop-color:#cf9056; stop-opacity:1" />
      <stop offset="100%" style="stop-color:#8c6e54; stop-opacity:1" />
    </linearGradient>
  </defs>

  <!-- Background rectangle with gradient -->
  <rect
     x="0"
     y="0"
     width="100%"
     height="100%"
     fill="url(#backgroundGradient)" />

  <g transform="matrix(0.62856722,0,0,0.62856722,-37.234082,-1.6124571)">
    <!-- Apply the first gradient to the first path -->
    <path
       d="m 350.1,482.9 c 11.1,0 20.1,9 20.1,20.1 0,11.1 -9,20.1 -20.1,20.1 -11.1,0 -20.1,-9 -20.1,-20.1 0,-11.1 9,-20.1 20.1,-20.1 M 537.9,300 v 0 c -118.4,0 -220.6,68.7 -269.3,168.4 -0.6,1.1 -1.1,2.2 -1.6,3.3 -0.5,1 -1,2 -1.5,3.1 v 0.2 0.1 c -3.5,8.6 -5.4,18.1 -5.4,28.1 0,10 1.9,19.5 5.4,28.1 v 0.1 0.2 c 0.5,1 1,2 1.5,3.1 0.5,1.1 1,2.2 1.6,3.3 48.6,99.3 150.9,168 269.3,168 0.1,0 0.2,0 0.3,0 v 0 c 34.2,-0.2 61.8,-27.9 61.8,-62.1 0,-26.8 -17,-49.6 -40.8,-58.3 v -0.3 C 533.3,575.1 512,556 498.9,531.8 v -0.3 c -4.8,-8.4 -7.5,-18.1 -7.5,-28.5 0,-10.4 2.8,-20 7.5,-28.4 v -0.3 c 13,-24.3 34.4,-43.4 60.3,-53.5 v -0.3 C 583,411.8 600,389 600,362.2 c 0,-34.2 -27.7,-62 -61.8,-62.1 v 0 C 538.1,300 538,300 537.9,300"
       fill="url(#menuGradient1)" />
    <!-- Apply the mirrored gradient to the second path -->
    <path
       d="m 849.9,386.1 c -11.1,0 -20.1,-9 -20.1,-20.1 0,-11.1 9,-20.1 20.1,-20.1 11.1,0 20.1,9 20.1,20.1 0,11.1 -9,20.1 -20.1,20.1 m -187.8,183 v 0 c 118.4,0 220.6,-68.7 269.3,-168.4 0.6,-1.1 1.1,-2.2 1.6,-3.3 0.5,-1 1,-2 1.5,-3.1 v -0.2 -0.1 c 3.5,-8.6 5.4,-18.1 5.4,-28.1 0,-10 -1.9,-19.5 -5.4,-28.1 v -0.1 -0.2 c -0.5,-1 -1,-2 -1.5,-3.1 -0.5,-1.1 -1,-2.2 -1.6,-3.3 C 882.8,231.7 780.5,163 662.1,163 c -0.1,0 -0.2,0 -0.3,0 v 0 c -34.2,0.2 -61.8,27.9 -61.8,62.1 0,26.8 17,49.6 40.8,58.3 v 0.3 c 25.9,10.2 47.2,29.3 60.3,53.5 v 0.3 c 4.8,8.4 7.5,18.1 7.5,28.4 0,10.3 -2.8,20 -7.5,28.5 v 0.3 c -13,24.3 -34.4,43.4 -60.3,53.5 v 0.3 C 617,457.4 600,480.1 600,507 c 0,34.2 27.7,62 61.8,62.1 v 0 c 0.1,0 0.2,0 0.3,0"
       fill="url(#menuGradient2)" />
  </g>
</svg>
